<svg width="248" height="217" viewBox="0 0 248 217" fill="none" xmlns="http://www.w3.org/2000/svg">
<g clip-path="url(#clip0_100_28)">
<path d="M11.9666 73.947L0.00864984 67.2134C-0.15265 60.009 1.4475 52.8742 4.67016 46.4285C7.42712 58.9388 21.9361 64.8909 28.6303 75.814C30.6921 79.2368 31.957 83.0796 32.3313 87.0576C32.7057 91.0356 32.1798 95.0469 30.7928 98.7941L31.5793 108.494C25.399 106.643 19.6935 103.475 14.8558 99.2074C10.0182 94.9399 6.16343 89.6746 3.55714 83.7742C2.12781 80.4496 1.12293 76.9584 0.566212 73.3828C6.14152 73.9759 11.9666 73.947 11.9666 73.947Z" fill="#F2F2F2"/>
<path d="M226.93 196.45L227.297 188.208C231.119 186.165 235.383 185.086 239.717 185.064C233.752 189.94 234.497 199.339 230.453 205.896C229.176 207.931 227.457 209.653 225.424 210.934C223.391 212.215 221.096 213.023 218.708 213.296L213.716 216.352C213.031 212.534 213.182 208.613 214.159 204.859C215.135 201.106 216.914 197.608 219.373 194.608C220.769 192.939 222.37 191.451 224.138 190.182C225.333 193.334 226.93 196.45 226.93 196.45Z" fill="#F2F2F2"/>
<path d="M214.069 212.11L209.548 212.109L207.398 194.679L214.069 194.679L214.069 212.11Z" fill="#FFB6B6"/>
<path d="M215.221 216.49L200.646 216.49V216.305C200.647 214.801 201.244 213.359 202.308 212.295C203.372 211.231 204.815 210.634 206.319 210.634H206.32L208.982 208.615L213.949 210.634L215.221 210.634L215.221 216.49Z" fill="#2F2E41"/>
<path d="M193.069 212.11L188.549 212.109L186.398 194.679L193.07 194.679L193.069 212.11Z" fill="#FFB6B6"/>
<path d="M194.222 216.49L179.647 216.49V216.305C179.647 214.801 180.245 213.359 181.309 212.295C182.372 211.231 183.815 210.634 185.32 210.634H185.32L187.982 208.615L192.95 210.634L194.222 210.634L194.222 216.49Z" fill="#2F2E41"/>
<path d="M191.112 116.815L220.513 117.55C226.096 120.582 226.181 127.145 224.352 134.937C224.352 134.937 224.969 139.568 223.734 140.803C222.499 142.038 221.881 142.038 222.499 144.199C223.116 146.36 219.853 149.89 220.25 150.286C220.646 150.683 221.572 152.844 221.572 152.844L218.484 170.442C218.484 170.442 216.323 201.008 215.705 201.626C215.087 202.243 214.47 201.626 215.087 203.169C215.705 204.713 216.323 204.096 215.705 204.713C215.158 205.303 214.642 205.921 214.161 206.566H206.695C206.695 206.566 206.132 203.478 206.132 203.169C206.132 202.861 205.514 201.008 205.514 200.699C205.514 200.391 206.06 199.845 206.06 199.845C206.249 199.217 206.376 198.573 206.44 197.921C206.44 197.303 208.293 173.53 208.293 173.53L204.588 142.655L195.632 172.912C195.632 172.912 195.632 199.464 195.014 200.082C194.397 200.699 194.397 200.391 194.706 201.626C195.014 202.861 196.25 202.552 195.323 203.478C194.397 204.404 194.088 202.861 194.397 204.404L194.706 205.948L185.441 206.081C185.441 206.081 184.206 203.478 184.823 202.552C185.441 201.626 185.404 201.878 184.65 200.363C183.897 198.847 183.588 198.538 183.897 198.229C184.206 197.921 184.206 196.279 184.206 196.279L185.75 166.737C185.75 166.737 186.059 135.554 186.059 134.628C186.082 134.151 185.994 133.676 185.802 133.239V131.982L186.985 127.527L191.112 116.815Z" fill="#2F2E41"/>
<path d="M208.774 55.6951C213.819 55.6951 217.908 51.6062 217.908 46.5623C217.908 41.5184 213.819 37.4294 208.774 37.4294C203.729 37.4294 199.639 41.5184 199.639 46.5623C199.639 51.6062 203.729 55.6951 208.774 55.6951Z" fill="#FFB6B6"/>
<path d="M204.206 61.7313C202.238 62.9011 201.061 65.0503 200.385 67.2372C199.134 71.2862 198.381 75.4725 198.142 79.7035L197.429 92.3706L188.588 119.342C196.25 125.824 225.048 120.815 225.048 120.815C225.048 120.815 225.932 120.521 225.048 119.637C224.164 118.753 223.304 119.536 224.188 118.652C225.072 117.768 224.462 118.753 224.168 117.869C223.873 116.985 224.168 117.575 224.462 117.28C224.757 116.985 222.181 114.334 222.181 114.334L224.539 98.8519L227.485 67.6235C223.949 63.2043 216.838 60.5993 216.838 60.5993L215 57.2925L205.813 58.0273L204.206 61.7313Z" fill="#F8FAFE"/>
<path d="M202.954 41.2024C203.307 41.2052 203.659 41.2513 204.001 41.3398C204.676 41.502 205.361 41.6168 206.051 41.6836C208.166 41.8825 210.153 42.7842 211.695 44.2446C213.237 45.705 214.245 47.6399 214.558 49.7403C215.089 49.2777 216.297 48.4266 217.287 49.2176C217.302 49.2301 217.311 49.2366 217.346 49.2201C218.003 48.9083 219.17 45.07 219.206 41.6906C219.224 39.8969 218.942 37.6064 217.491 36.8811L217.414 36.8428L217.394 36.7598C217.297 36.3563 216.214 35.6675 214.332 35.1315C210.911 34.1573 205.812 32.2596 202.94 35.0524C202.723 35.9939 202.016 38.0088 201.302 38.2372C200.511 38.49 199.828 38.7081 199.72 39.678C199.63 41.0582 199.637 42.443 199.74 43.8223C200.008 42.9783 200.534 42.2396 201.244 41.7101C201.748 41.3704 202.345 41.1932 202.954 41.2024V41.2024Z" fill="#2F2E41"/>
<path d="M185.951 91.6655L200.872 82.1112L193.357 72.1227L185.935 81.2495L162.812 82.6673C162.204 82.0663 161.434 81.6551 160.596 81.484C159.759 81.3129 158.889 81.3892 158.094 81.7036C157.298 82.0181 156.612 82.557 156.118 83.2548C155.624 83.9526 155.343 84.7791 155.311 85.6335C155.278 86.4878 155.495 87.3332 155.935 88.0664C156.375 88.7997 157.018 89.3892 157.788 89.763C158.557 90.1369 159.418 90.2789 160.266 90.1718C161.115 90.0647 161.914 89.7132 162.566 89.16L185.951 91.6655Z" fill="#FFB6B6"/>
<path d="M214.722 68.7753C215.588 74.0154 199.234 84.0217 199.234 84.0217C199.233 82.7917 189.472 92.0769 189.031 91.0568C187.779 88.1577 186.899 81.2911 185.149 80.1921C184.148 79.5635 191.176 73.659 191.176 73.659C191.176 73.659 194.854 69.954 199.682 65.2806C201.022 63.9341 202.681 62.9485 204.505 62.4155C206.329 61.8825 208.258 61.8195 210.112 62.2324C210.112 62.2324 213.856 63.5352 214.722 68.7753Z" fill="#F8FAFE"/>
<path d="M245.479 94.1734L235.609 79.4604L225.779 87.1843L235.063 94.409L236.971 117.492C236.383 118.112 235.988 118.891 235.834 119.732C235.681 120.573 235.776 121.44 236.107 122.229C236.438 123.017 236.992 123.692 237.7 124.171C238.408 124.65 239.241 124.913 240.096 124.927C240.951 124.941 241.792 124.707 242.515 124.252C243.239 123.797 243.815 123.141 244.173 122.364C244.53 121.587 244.654 120.723 244.529 119.878C244.404 119.032 244.036 118.241 243.469 117.601L245.479 94.1734Z" fill="#FFB6B6"/>
<path d="M221.979 65.8995C227.201 64.9229 237.553 81.0585 237.553 81.0585C236.324 81.0848 245.815 90.6452 244.805 91.1072C241.932 92.4203 235.084 93.4458 234.022 95.2181C233.415 96.2316 227.361 89.3323 227.361 89.3323C227.361 89.3323 223.578 85.7338 218.803 81.0076C217.428 79.6965 216.407 78.0588 215.836 76.2472C215.264 74.4356 215.16 72.5088 215.534 70.6462C215.534 70.6462 216.757 66.8762 221.979 65.8995Z" fill="#F8FAFE"/>
<path d="M248 216.563C248 216.62 247.989 216.677 247.967 216.73C247.945 216.783 247.913 216.832 247.872 216.872C247.831 216.913 247.783 216.945 247.73 216.967C247.677 216.989 247.62 217 247.562 217H144.554C144.438 217 144.327 216.954 144.245 216.872C144.163 216.79 144.117 216.679 144.117 216.563C144.117 216.447 144.163 216.336 144.245 216.254C144.327 216.172 144.438 216.125 144.554 216.125H247.562C247.62 216.125 247.677 216.137 247.73 216.158C247.783 216.18 247.831 216.213 247.872 216.253C247.913 216.294 247.945 216.342 247.967 216.395C247.989 216.448 248 216.505 248 216.563Z" fill="#CCCCCC"/>
<path d="M152.575 84.0637H27.5601C25.6069 84.0659 23.7344 84.8426 22.3533 86.2234C20.9722 87.6042 20.1953 89.4763 20.1931 91.429V169.245C20.1953 171.198 20.9722 173.07 22.3533 174.451C23.7344 175.831 25.6069 176.608 27.5601 176.61H152.575C154.528 176.608 156.4 175.831 157.781 174.451C159.163 173.07 159.939 171.198 159.942 169.245V91.429C159.94 89.4763 159.163 87.6042 157.782 86.2234C156.4 84.8426 154.528 84.0659 152.575 84.0637Z" fill="#4E73DF"/>
<path d="M152.575 84.0637H27.5601C25.6069 84.0659 23.7344 84.8426 22.3533 86.2234C20.9722 87.6042 20.1953 89.4763 20.1931 91.429V169.245C20.1953 171.198 20.9722 173.07 22.3533 174.451C23.7344 175.831 25.6069 176.608 27.5601 176.61H152.575C154.528 176.608 156.4 175.831 157.781 174.451C159.163 173.07 159.939 171.198 159.942 169.245V91.429C159.94 89.4763 159.163 87.6042 157.782 86.2234C156.4 84.8426 154.528 84.0659 152.575 84.0637ZM154.992 139.96C154.962 147.882 151.828 155.477 146.262 161.115C140.695 166.754 133.14 169.986 125.218 170.119C112.533 170.285 132.236 170.349 116.937 170.349C81.9531 170.349 45.4746 170.015 31.864 169.798C30.0733 169.761 28.3679 169.026 27.1121 167.749C25.8562 166.472 25.1494 164.755 25.1425 162.964V91.4348C25.1432 90.7935 25.3979 90.1787 25.8508 89.7247C26.3038 89.2707 26.9182 89.0145 27.5596 89.0122H152.57C153.211 89.013 153.826 89.2676 154.28 89.7204C154.734 90.1731 154.99 90.7872 154.992 91.4283V139.96Z" fill="#3F3D56"/>
<path d="M137.186 39.2546H41.9375C41.0948 39.2558 40.273 39.5171 39.5842 40.0026C38.8955 40.4882 38.3735 41.1744 38.0894 41.9676L23.379 83.2292C23.1594 83.8451 23.0909 84.5047 23.1793 85.1525C23.2677 85.8003 23.5103 86.4175 23.8869 86.9521C24.2634 87.4867 24.7627 87.9231 25.343 88.2246C25.9232 88.5262 26.5674 88.6841 27.2214 88.685L154.965 88.9117H154.97C155.646 88.9116 156.312 88.7439 156.907 88.4234C157.502 88.103 158.009 87.6399 158.381 87.0756C158.753 86.5114 158.979 85.8636 159.039 85.1904C159.099 84.5172 158.992 83.8396 158.725 83.2184L158.502 83.3137L158.725 83.2184L140.94 41.7301C140.626 40.995 140.103 40.3685 139.435 39.9284C138.767 39.4883 137.985 39.254 137.186 39.2546V39.2546Z" fill="#3F3D56"/>
<path d="M159.056 84.1145C159.055 84.6678 158.943 85.2153 158.725 85.7239L140.941 117.66C140.625 118.394 140.101 119.019 139.433 119.458C138.766 119.897 137.985 120.132 137.185 120.133H41.9388C41.0958 120.132 40.2735 119.871 39.5843 119.386C38.895 118.901 38.3722 118.215 38.0874 117.422L23.3798 85.7128C23.1995 85.2077 23.1205 84.6719 23.1475 84.1363C23.1744 83.6006 23.3067 83.0754 23.5367 82.5909C23.7668 82.1063 24.0901 81.6719 24.4882 81.3123C24.8862 80.9528 25.3513 80.6752 25.8567 80.4954C26.294 80.3376 26.7553 80.2568 27.2202 80.2566L42.8245 80.2272L49.1934 80.2162L133 80.0692L139.372 80.0582L154.965 80.0288H154.969C156.053 80.029 157.092 80.4595 157.859 81.2257C158.625 81.9919 159.056 83.031 159.056 84.1145V84.1145Z" fill="#3F3D56"/>
<path d="M36.9321 142.435C38.8208 142.435 64.7575 144.019 64.7575 145.908C64.7575 147.796 38.8208 149.273 36.9321 149.273C36.0251 149.273 35.1552 148.913 34.5139 148.271C33.8725 147.63 33.5122 146.761 33.5122 145.854C33.5122 144.947 33.8725 144.077 34.5139 143.436C35.1552 142.795 36.0251 142.435 36.9321 142.435V142.435Z" fill="#3F3D56"/>
<path d="M131.254 14.1533H50.9427C48.7904 14.1558 46.7269 15.0117 45.205 16.5333C43.6831 18.0549 42.8269 20.1179 42.8245 22.2697V120.133H137.185C137.96 120.135 138.719 119.915 139.372 119.497V22.2697C139.37 20.1179 138.513 18.0549 136.992 16.5333C135.47 15.0117 133.406 14.1558 131.254 14.1533Z" fill="#F8FAFE"/>
<path d="M100.6 20.734H56.5878C54.628 20.7359 52.7489 21.5149 51.3627 22.9001C49.9766 24.2852 49.1965 26.1635 49.1936 28.1229V120.133H133V53.1261C132.99 44.5382 129.573 36.3049 123.499 30.2324C117.425 24.1598 109.19 20.7439 100.6 20.734V20.734Z" fill="white"/>
<path d="M118.722 111.962H63.4712C62.9936 111.962 62.5356 112.151 62.1978 112.489C61.8601 112.827 61.6704 113.285 61.6704 113.762C61.6704 114.24 61.8601 114.697 62.1978 115.035C62.5356 115.373 62.9936 115.562 63.4712 115.562H118.722C119.2 115.562 119.658 115.373 119.995 115.035C120.333 114.697 120.523 114.24 120.523 113.762C120.523 113.285 120.333 112.827 119.995 112.489C119.658 112.151 119.2 111.962 118.722 111.962V111.962Z" fill="#E4E4E4"/>
<path d="M118.722 104.841H63.4711C62.993 104.841 62.5345 105.031 62.1964 105.369C61.8584 105.707 61.6685 106.165 61.6685 106.643C61.6685 107.121 61.8584 107.579 62.1964 107.917C62.5345 108.255 62.993 108.445 63.4711 108.445H118.722C119.2 108.445 119.659 108.255 119.997 107.917C120.335 107.579 120.525 107.121 120.525 106.643C120.525 106.165 120.335 105.707 119.997 105.369C119.659 105.031 119.2 104.841 118.722 104.841V104.841Z" fill="#E4E4E4"/>
<path d="M87.4216 97.724H63.4712C62.9936 97.724 62.5356 97.9137 62.1978 98.2513C61.8601 98.589 61.6704 99.0469 61.6704 99.5244C61.6704 100.002 61.8601 100.46 62.1978 100.797C62.5356 101.135 62.9936 101.325 63.4712 101.325H87.4216C87.8992 101.325 88.3572 101.135 88.6949 100.797C89.0326 100.46 89.2223 100.002 89.2223 99.5244C89.2223 99.0469 89.0326 98.589 88.6949 98.2513C88.3572 97.9137 87.8992 97.724 87.4216 97.724V97.724Z" fill="#E4E4E4"/>
<path d="M118.722 82.8137H63.4711C62.993 82.8137 62.5345 83.0036 62.1964 83.3416C61.8584 83.6796 61.6685 84.138 61.6685 84.6159C61.6685 85.0939 61.8584 85.5523 62.1964 85.8903C62.5345 86.2283 62.993 86.4181 63.4711 86.4181H118.722C119.2 86.4181 119.659 86.2283 119.997 85.8903C120.335 85.5523 120.525 85.0939 120.525 84.6159C120.525 84.138 120.335 83.6796 119.997 83.3416C119.659 83.0036 119.2 82.8137 118.722 82.8137Z" fill="#E4E4E4"/>
<path d="M118.722 75.6969H63.4712C62.9936 75.6969 62.5356 75.8866 62.1978 76.2242C61.8601 76.5619 61.6704 77.0198 61.6704 77.4973C61.6704 77.9748 61.8601 78.4327 62.1978 78.7703C62.5356 79.108 62.9936 79.2976 63.4712 79.2976H118.722C119.2 79.2976 119.658 79.108 119.995 78.7703C120.333 78.4327 120.523 77.9748 120.523 77.4973C120.523 77.0198 120.333 76.5619 119.995 76.2242C119.658 75.8866 119.2 75.6969 118.722 75.6969V75.6969Z" fill="#E4E4E4"/>
<path d="M87.4215 68.5762H63.4711C62.993 68.5762 62.5345 68.766 62.1964 69.104C61.8584 69.442 61.6685 69.9004 61.6685 70.3784C61.6685 70.8564 61.8584 71.3148 62.1964 71.6527C62.5345 71.9907 62.993 72.1806 63.4711 72.1806H87.4215C87.8996 72.1806 88.3581 71.9907 88.6961 71.6527C89.0342 71.3148 89.2241 70.8564 89.2241 70.3784C89.2241 69.9004 89.0342 69.442 88.6961 69.104C88.3581 68.766 87.8996 68.5762 87.4215 68.5762Z" fill="#E4E4E4"/>
<path d="M118.722 53.6661H63.4711C62.993 53.6661 62.5345 53.856 62.1964 54.194C61.8584 54.532 61.6685 54.9904 61.6685 55.4684C61.6685 55.9463 61.8584 56.4047 62.1964 56.7427C62.5345 57.0807 62.993 57.2706 63.4711 57.2706H118.722C119.2 57.2706 119.659 57.0807 119.997 56.7427C120.335 56.4047 120.525 55.9463 120.525 55.4684C120.525 54.9904 120.335 54.532 119.997 54.194C119.659 53.856 119.2 53.6661 118.722 53.6661Z" fill="#4E73DF"/>
<path d="M118.722 46.5492H63.4711C62.993 46.5492 62.5345 46.7391 62.1964 47.0771C61.8584 47.415 61.6685 47.8734 61.6685 48.3514C61.6685 48.8294 61.8584 49.2878 62.1964 49.6258C62.5345 49.9637 62.993 50.1536 63.4711 50.1536H118.722C119.2 50.1536 119.659 49.9637 119.997 49.6258C120.335 49.2878 120.525 48.8294 120.525 48.3514C120.525 47.8734 120.335 47.415 119.997 47.0771C119.659 46.7391 119.2 46.5492 118.722 46.5492Z" fill="#4E73DF"/>
<path d="M87.4215 39.4285H63.4711C62.993 39.4285 62.5345 39.6183 62.1964 39.9563C61.8584 40.2943 61.6685 40.7527 61.6685 41.2307C61.6685 41.7087 61.8584 42.1671 62.1964 42.505C62.5345 42.843 62.993 43.0329 63.4711 43.0329H87.4215C87.8996 43.0329 88.3581 42.843 88.6961 42.505C89.0342 42.1671 89.2241 41.7087 89.2241 41.2307C89.2241 40.7527 89.0342 40.2943 88.6961 39.9563C88.3581 39.6183 87.8996 39.4285 87.4215 39.4285Z" fill="#4E73DF"/>
<path d="M136.362 28.0439C144.107 28.0439 150.387 21.766 150.387 14.0219C150.387 6.27783 144.107 0 136.362 0C128.616 0 122.336 6.27783 122.336 14.0219C122.336 21.766 128.616 28.0439 136.362 28.0439Z" fill="#4E73DF"/>
<path d="M134.448 21.3198C134.206 21.3198 133.967 21.2634 133.75 21.1551C133.534 21.0468 133.345 20.8895 133.2 20.6957L129.374 15.5951C129.25 15.4313 129.16 15.2447 129.109 15.0461C129.057 14.8474 129.046 14.6406 129.074 14.4374C129.103 14.2343 129.172 14.0388 129.276 13.8621C129.381 13.6855 129.519 13.5312 129.683 13.4081C129.847 13.285 130.034 13.1955 130.233 13.1447C130.432 13.094 130.639 13.0829 130.842 13.1122C131.045 13.1415 131.24 13.2106 131.417 13.3155C131.593 13.4204 131.747 13.5591 131.87 13.7236L134.373 17.0603L140.802 7.41857C141.032 7.07437 141.389 6.83542 141.795 6.75429C142.2 6.67317 142.622 6.7565 142.966 6.98597C143.31 7.21544 143.549 7.57224 143.63 7.97788C143.711 8.38353 143.628 8.80478 143.399 9.14899L135.746 20.6252C135.608 20.8327 135.421 21.0041 135.203 21.1248C134.985 21.2456 134.741 21.3123 134.491 21.3193C134.477 21.3195 134.462 21.3198 134.448 21.3198Z" fill="white"/>
</g>
<defs>
<clipPath id="clip0_100_28">
<rect width="248" height="217" fill="white"/>
</clipPath>
</defs>
</svg>
