<svg width="421" height="230" viewBox="0 0 421 230" fill="none" xmlns="http://www.w3.org/2000/svg">
<g clip-path="url(#clip0_110_4)">
<path d="M365.456 228.492C365.496 228.371 369.397 216.286 362.492 205.502L361.788 205.955C368.471 216.394 364.7 228.11 364.661 228.227L365.456 228.492Z" fill="#E4E4E4"/>
<path d="M357.556 207.053C357.705 207.759 357.991 208.429 358.398 209.025C358.806 209.621 359.326 210.13 359.93 210.524C360.534 210.918 361.21 211.189 361.919 211.322C362.627 211.455 363.355 211.446 364.061 211.297C364.766 211.148 365.435 210.862 366.03 210.454C366.625 210.046 367.134 209.525 367.527 208.92C367.921 208.315 368.192 207.639 368.324 206.929C368.457 206.22 368.448 205.491 368.3 204.785C367.674 201.814 362.37 194.422 359.403 195.048C356.436 195.674 356.93 204.083 357.556 207.053Z" fill="#E4E4E4"/>
<path d="M358.556 220.946C361.204 223.811 365.941 223.733 365.941 223.733C365.941 223.733 366.385 219.011 363.737 216.146C361.089 213.281 356.352 213.359 356.352 213.359C356.352 213.359 355.908 218.081 358.556 220.946Z" fill="#E4E4E4"/>
<path d="M398.688 229.33C398.783 229.045 407.989 200.525 391.695 175.077L390.032 176.144C405.804 200.779 396.905 228.429 396.813 228.705L398.688 229.33Z" fill="#E4E4E4"/>
<path d="M380.044 178.736C380.754 182.102 382.77 185.047 385.648 186.925C388.527 188.803 392.033 189.459 395.394 188.749C398.756 188.039 401.698 186.022 403.575 183.14C405.451 180.258 406.107 176.749 405.399 173.383C403.922 166.373 391.404 148.927 384.403 150.405C377.401 151.883 378.568 171.726 380.044 178.736Z" fill="#E4E4E4"/>
<path d="M382.405 211.522C388.653 218.283 399.832 218.099 399.832 218.099C399.832 218.099 400.88 206.955 394.631 200.195C388.382 193.434 377.204 193.618 377.204 193.618C377.204 193.618 376.156 204.762 382.405 211.522Z" fill="#E4E4E4"/>
<path d="M242.869 227.183L236.76 224.607L232.569 193.944H176.758L172.216 224.482L166.75 227.218C166.488 227.349 166.278 227.565 166.155 227.83C166.031 228.095 166 228.394 166.067 228.679C166.134 228.964 166.295 229.218 166.525 229.4C166.754 229.581 167.038 229.68 167.33 229.68H242.366C242.666 229.68 242.956 229.576 243.188 229.386C243.42 229.196 243.579 228.932 243.638 228.638C243.698 228.344 243.653 228.038 243.513 227.773C243.373 227.508 243.146 227.299 242.869 227.183V227.183Z" fill="#E6E6E6"/>
<path d="M342.049 198.024H67.8911C66.4527 198.02 65.0742 197.446 64.0583 196.427C63.0423 195.407 62.4717 194.026 62.4717 192.585V153.879H347.469V192.585C347.469 194.026 346.898 195.407 345.882 196.426C344.866 197.446 343.488 198.02 342.049 198.024V198.024Z" fill="#CCCCCC"/>
<path d="M347.755 172.173H62.2212V6.55554C62.2232 4.81748 62.9137 3.15118 64.1412 1.92221C65.3688 0.693235 67.0331 0.00194812 68.7691 0H341.207C342.943 0.00194698 344.607 0.69323 345.835 1.9222C347.062 3.15117 347.753 4.81747 347.755 6.55554V172.173Z" fill="#3F3D56"/>
<path d="M330.703 12.02H79.2744C77.9362 12.0217 76.6533 12.555 75.7074 13.5028C74.7616 14.4506 74.23 15.7355 74.2295 17.0753V155.098C74.23 156.437 74.7616 157.722 75.7074 158.67C76.6533 159.618 77.9362 160.151 79.2744 160.153H330.703C332.041 160.15 333.324 159.617 334.269 158.669C335.215 157.722 335.747 156.437 335.748 155.098V17.0753C335.747 15.7356 335.215 14.4512 334.269 13.5035C333.324 12.5559 332.041 12.0224 330.703 12.02Z" fill="white"/>
<path d="M123.842 12.02V160.153H79.2744C77.9362 160.151 76.6533 159.618 75.7074 158.67C74.7616 157.722 74.23 156.437 74.2295 155.098V17.0753C74.23 15.7355 74.7616 14.4506 75.7074 13.5028C76.6533 12.555 77.9362 12.0217 79.2744 12.02H123.842Z" fill="#F0F0F0"/>
<path d="M87.0742 86.8519C86.5725 86.7376 86.0519 86.7348 85.549 86.8437C85.0461 86.9526 84.5732 87.1705 84.1636 87.4822C83.7539 87.7939 83.4175 88.1917 83.178 88.6476C82.9386 89.1036 82.8018 89.6065 82.7775 90.1211L70.7812 93.6621L75.7474 97.8595L86.3779 93.8534C87.244 93.8371 88.074 93.5032 88.7107 92.9151C89.3474 92.3269 89.7464 91.5254 89.8322 90.6623C89.9181 89.7993 89.6847 88.9347 89.1764 88.2324C88.6681 87.5301 87.9201 87.039 87.0742 86.8519H87.0742Z" fill="#FFB6B6"/>
<path d="M38.6034 113.501C37.4175 113.499 36.2706 113.076 35.3673 112.307C34.4641 111.537 33.8631 110.472 33.6716 109.3C33.4801 108.128 33.7106 106.926 34.3218 105.909C34.9331 104.891 35.8855 104.124 37.0091 103.744L61.3188 95.5282L80.2815 88.6118L82.6085 96.7669L65.8684 107.811L39.6497 113.39C39.3058 113.464 38.9551 113.501 38.6034 113.501V113.501Z" fill="#4E73DF"/>
<path d="M53.8163 225.849H57.2293L58.8533 212.668H53.8154L53.8163 225.849Z" fill="#FFB6B6"/>
<path d="M52.9458 224.733L59.6676 224.733H59.6679C60.804 224.733 61.8935 225.185 62.6968 225.989C63.5002 226.794 63.9515 227.884 63.9516 229.022V229.161L52.946 229.162L52.9458 224.733Z" fill="#2F2E41"/>
<path d="M27.6459 225.849H31.0589L32.683 212.668H27.6455L27.6459 225.849Z" fill="#FFB6B6"/>
<path d="M26.7754 224.733L33.4972 224.733H33.4975C34.6336 224.733 35.7231 225.185 36.5264 225.989C37.3298 226.794 37.7811 227.884 37.7812 229.022V229.161L26.7756 229.162L26.7754 224.733Z" fill="#2F2E41"/>
<path d="M27.6124 146.786C26.0504 150.429 25.7086 154.48 26.638 158.334L25.6636 223.719H33.1597L37.3566 187.761L44.3168 164.068L51.8337 182.465V220.807L59.0723 220.374L62.97 179.677L58.5155 150.688L27.6124 146.786Z" fill="#2F2E41"/>
<path d="M55.0351 95.9154L48.6318 93.9642L46.9614 90.6193H38.7363L36.6603 94.2429C36.6603 94.2429 28.3081 97.3091 28.0297 112.082C27.7513 126.856 26.6377 150.549 26.6377 150.549L59.5707 155.25L55.0351 95.9154Z" fill="#4E73DF"/>
<path d="M64.4899 152.604C64.706 152.136 64.817 151.627 64.8151 151.112C64.8133 150.597 64.6987 150.088 64.4794 149.622C64.26 149.156 63.9413 148.744 63.5457 148.415C63.15 148.085 62.6871 147.847 62.1894 147.716L61.2241 135.232L56.0908 139.223L57.7945 150.466C57.6304 151.318 57.7841 152.2 58.2263 152.946C58.6685 153.692 59.3686 154.249 60.1939 154.512C61.0192 154.776 61.9124 154.727 62.7042 154.375C63.496 154.024 64.1314 153.393 64.49 152.604H64.4899Z" fill="#FFB6B6"/>
<path d="M55.7315 146.169L48.4224 127.479V100.642C48.4224 99.364 48.9104 98.1341 49.7866 97.2044C50.6628 96.2747 51.8608 95.7154 53.1354 95.6413C54.41 95.5671 55.6646 95.9835 56.6425 96.8053C57.6204 97.6272 58.2475 98.7922 58.3954 100.062L61.368 125.577L64.1826 145.586L55.7315 146.169Z" fill="#4E73DF"/>
<path d="M44.427 86.2802C48.9666 86.2802 52.6466 82.5957 52.6466 78.0507C52.6466 73.5057 48.9666 69.8213 44.427 69.8213C39.8875 69.8213 36.2075 73.5057 36.2075 78.0507C36.2075 82.5957 39.8875 86.2802 44.427 86.2802Z" fill="#FFB9B9"/>
<path d="M44.9651 75.5491C44.5805 76.0433 44.0533 76.4895 43.9686 77.1103C43.9059 77.5703 44.1066 78.0249 44.1257 78.4887C44.1273 78.9568 43.9505 79.4079 43.6314 79.7501C43.3123 80.0922 42.8749 80.2997 42.4083 80.3301C42.0833 79.9207 41.6137 79.6518 41.0965 79.5791C40.839 79.5499 40.579 79.6041 40.3547 79.7339C40.1304 79.8636 39.9536 80.062 39.8502 80.2999C39.6061 80.9903 40.1711 81.6915 40.262 82.4182C40.274 82.9557 40.1872 83.4909 40.0057 83.9969C39.7975 84.8307 39.7418 85.7128 39.3764 86.4905C39.011 87.2681 38.1986 87.937 37.3575 87.7652C36.6503 87.6206 36.1717 86.9348 35.974 86.2398C35.7762 85.5448 35.785 84.8079 35.6419 84.0995C35.1768 81.798 33.1981 80.0927 32.4217 77.8769C31.427 75.0376 32.622 71.7899 34.6816 69.5987C35.5142 68.6386 36.6012 67.934 37.8168 67.5663C39.1003 67.2391 40.4572 67.4743 41.7742 67.3344C43.1827 67.1847 44.5065 66.6117 45.8753 66.2475C47.2441 65.8833 48.7729 65.7462 50.0171 66.4237C50.8849 66.8962 51.5134 67.711 52.3219 68.2792C53.2488 68.9258 54.3726 69.2269 55.4982 69.1304L54.1541 69.7186C54.6685 70.1913 55.2899 70.532 55.9647 70.7115C55.4155 71.1474 54.736 71.3862 54.0352 71.3897C54.1813 71.6534 54.38 71.8843 54.6188 72.0682C54.8576 72.252 55.1315 72.3849 55.4236 72.4586C54.403 72.9383 53.3195 73.4297 52.1972 73.3215C51.6475 73.2686 51.1221 73.0729 50.5791 72.9722C49.4216 72.7576 48.233 72.98 47.0769 73.2021C46.4698 73.3187 45.7247 73.4306 45.4182 74.015C45.1629 74.5017 45.3581 75.0439 44.9651 75.5491Z" fill="#2F2E41"/>
<path d="M99.0356 99.215C106.278 99.215 112.148 93.3371 112.148 86.0864C112.148 78.8356 106.278 72.9578 99.0356 72.9578C91.7936 72.9578 85.9229 78.8356 85.9229 86.0864C85.9229 93.3371 91.7936 99.215 99.0356 99.215Z" fill="#4E73DF"/>
<path d="M210.699 29.3459C210.294 29.3464 209.906 29.5074 209.621 29.7937C209.335 30.08 209.174 30.4681 209.173 30.873V56.4419C209.174 56.8468 209.335 57.235 209.621 57.5213C209.906 57.8076 210.294 57.9687 210.699 57.9692H313.651C314.055 57.9687 314.443 57.8076 314.729 57.5213C315.015 57.235 315.176 56.8468 315.176 56.4419V30.873C315.176 30.4681 315.015 30.08 314.729 29.7937C314.443 29.5074 314.055 29.3464 313.651 29.3459H210.699Z" fill="white"/>
<path d="M210.699 29.3459C210.294 29.3464 209.906 29.5074 209.621 29.7937C209.335 30.08 209.174 30.4681 209.173 30.873V56.4419C209.174 56.8468 209.335 57.235 209.621 57.5213C209.906 57.8076 210.294 57.9687 210.699 57.9692H313.651C314.055 57.9687 314.443 57.8076 314.729 57.5213C315.015 57.235 315.176 56.8468 315.176 56.4419V30.873C315.176 30.4681 315.015 30.08 314.729 29.7937C314.443 29.5074 314.055 29.3464 313.651 29.3459H210.699Z" fill="#E6E6E6"/>
<path d="M210.889 56.2511H313.46V31.064H210.889V56.2511Z" fill="white"/>
<path d="M222.551 38.3129C222.197 38.3129 221.858 38.4536 221.608 38.7042C221.357 38.9548 221.217 39.2947 221.217 39.649C221.217 40.0034 221.357 40.3433 221.608 40.5939C221.858 40.8444 222.197 40.9852 222.551 40.9852H301.795C301.97 40.9853 302.144 40.9508 302.306 40.8837C302.468 40.8167 302.615 40.7183 302.739 40.5943C302.863 40.4703 302.961 40.323 303.028 40.1609C303.095 39.9988 303.13 39.8251 303.13 39.6496C303.13 39.4741 303.096 39.3004 303.029 39.1382C302.962 38.9761 302.863 38.8288 302.739 38.7046C302.616 38.5805 302.469 38.482 302.307 38.4148C302.145 38.3476 301.971 38.3129 301.796 38.3129H222.551Z" fill="#E4E4E4"/>
<path d="M222.551 46.3298C222.197 46.3305 221.859 46.4715 221.609 46.722C221.359 46.9725 221.219 47.312 221.219 47.666C221.219 48.02 221.359 48.3595 221.609 48.61C221.859 48.8605 222.197 49.0016 222.551 49.0022H301.794C302.148 49.003 302.488 48.863 302.739 48.6129C302.99 48.3629 303.131 48.0234 303.132 47.669C303.133 47.3146 302.993 46.9744 302.743 46.7233C302.493 46.4722 302.154 46.3306 301.8 46.3298H222.551V46.3298Z" fill="#E4E4E4"/>
<path d="M139.106 72.7307C138.701 72.7311 138.314 72.8922 138.028 73.1785C137.742 73.4647 137.581 73.8529 137.581 74.2578V99.8267C137.581 100.232 137.742 100.62 138.028 100.906C138.314 101.192 138.701 101.353 139.106 101.354H242.058C242.463 101.353 242.85 101.192 243.136 100.906C243.422 100.62 243.583 100.232 243.583 99.8267V74.2578C243.583 73.8529 243.422 73.4647 243.136 73.1785C242.85 72.8922 242.463 72.7311 242.058 72.7307H139.106Z" fill="white"/>
<path d="M139.106 72.7307C138.701 72.7311 138.314 72.8922 138.028 73.1785C137.742 73.4647 137.581 73.8529 137.581 74.2578V99.8267C137.581 100.232 137.742 100.62 138.028 100.906C138.314 101.192 138.701 101.353 139.106 101.354H242.058C242.463 101.353 242.85 101.192 243.136 100.906C243.422 100.62 243.583 100.232 243.583 99.8267V74.2578C243.583 73.8529 243.422 73.4647 243.136 73.1785C242.85 72.8922 242.463 72.7311 242.058 72.7307H139.106Z" fill="#E6E6E6"/>
<path d="M139.296 99.6359H241.867V74.4487H139.296V99.6359Z" fill="white"/>
<path d="M150.959 81.6976C150.605 81.6976 150.265 81.8384 150.015 82.089C149.765 82.3396 149.624 82.6794 149.624 83.0338C149.624 83.3882 149.765 83.7281 150.015 83.9786C150.265 84.2292 150.605 84.37 150.959 84.37H230.202C230.377 84.3701 230.551 84.3356 230.713 84.2685C230.875 84.2014 231.022 84.1031 231.146 83.979C231.27 83.855 231.368 83.7078 231.435 83.5457C231.503 83.3836 231.537 83.2099 231.537 83.0344C231.537 82.8589 231.503 82.6852 231.436 82.523C231.369 82.3609 231.271 82.2135 231.147 82.0894C231.023 81.9653 230.876 81.8668 230.714 81.7996C230.552 81.7323 230.378 81.6977 230.203 81.6976H150.959Z" fill="#E4E4E4"/>
<path d="M150.958 89.7146C150.605 89.7152 150.266 89.8563 150.016 90.1068C149.766 90.3573 149.626 90.6968 149.626 91.0508C149.626 91.4047 149.766 91.7442 150.016 91.9948C150.266 92.2453 150.605 92.3863 150.958 92.387H230.202C230.556 92.3877 230.895 92.2477 231.146 91.9977C231.397 91.7477 231.538 91.4081 231.539 91.0538C231.54 90.6994 231.4 90.3592 231.15 90.1081C230.901 89.8569 230.562 89.7154 230.208 89.7146H150.958V89.7146Z" fill="#E4E4E4"/>
<path d="M264.597 141.355C265.055 141.305 265.497 141.154 265.891 140.914C266.285 140.674 266.622 140.35 266.878 139.966C267.133 139.581 267.302 139.146 267.371 138.689C267.44 138.232 267.408 137.766 267.278 137.323L276.402 130.798L270.965 128.702L263.134 135.219C262.405 135.488 261.8 136.015 261.433 136.7C261.066 137.385 260.963 138.181 261.143 138.938C261.324 139.694 261.775 140.358 262.411 140.803C263.048 141.249 263.825 141.445 264.597 141.355V141.355Z" fill="#FFB7B7"/>
<path d="M269.663 137.058L266.636 131.882L266.7 131.808L278.912 117.888L288.395 101.698L296.628 102.749L296.75 105.241L296.725 105.278L283.644 124.967L283.63 124.979L269.663 137.058Z" fill="#3F3D56"/>
<path d="M310.012 224.642L305.356 224.642L303.141 206.66L310.013 206.66L310.012 224.642Z" fill="#FFB7B7"/>
<path d="M311.2 229.162L296.186 229.161V228.971C296.186 227.419 296.801 225.931 297.897 224.834C298.993 223.737 300.48 223.12 302.03 223.12H302.03L311.2 223.12L311.2 229.162Z" fill="#2F2E41"/>
<path d="M269.937 224.49L265.408 223.407L267.425 205.401L274.109 206.999L269.937 224.49Z" fill="#FFB7B7"/>
<path d="M270.044 229.162L255.44 225.67L255.485 225.485C255.845 223.976 256.789 222.672 258.109 221.859C259.43 221.047 261.018 220.793 262.526 221.153L262.526 221.153L271.446 223.286L270.044 229.162Z" fill="#2F2E41"/>
<path d="M288.034 93.4769V85.6295C288.034 82.8406 289.141 80.1659 291.11 78.1938C293.08 76.2218 295.752 75.1139 298.537 75.1139C301.323 75.1139 303.994 76.2218 305.964 78.1938C307.933 80.1659 309.04 82.8406 309.04 85.6295V93.4769C309.04 93.8514 308.891 94.2105 308.626 94.4753C308.362 94.7401 308.003 94.8891 307.629 94.8895H289.445C289.071 94.8891 288.712 94.7401 288.448 94.4753C288.183 94.2105 288.035 93.8514 288.034 93.4769V93.4769Z" fill="#2F2E41"/>
<path d="M295.945 94.7703C300.198 94.7703 303.645 91.3185 303.645 87.0606C303.645 82.8027 300.198 79.351 295.945 79.351C291.692 79.351 288.245 82.8027 288.245 87.0606C288.245 91.3185 291.692 94.7703 295.945 94.7703Z" fill="#FFB7B7"/>
<path d="M285.55 86.2575C285.552 84.0521 286.428 81.9378 287.986 80.3783C289.544 78.8189 291.655 77.9417 293.858 77.9392H295.426C297.628 77.9417 299.74 78.8189 301.298 80.3783C302.855 81.9378 303.731 84.0521 303.734 86.2575V86.4145H300.421L299.291 83.2467L299.065 86.4145H297.353L296.783 84.8161L296.669 86.4145H285.55V86.2575Z" fill="#2F2E41"/>
<path d="M300.437 127.752L280.83 127.005L279.734 114.162C278.889 111.812 278.875 109.793 279.694 108.164C280.397 106.825 281.58 105.802 283.005 105.299L287.295 100.111C287.847 99.4439 288.54 98.908 289.324 98.5421C290.108 98.1762 290.964 97.9893 291.829 97.9949L302.975 98.0712C303.244 97.9093 304.874 97.0801 308.088 98.4751C311.574 99.9883 310.764 105.244 310.756 105.296L310.748 105.346L310.71 105.378L303.295 111.63L300.437 127.752Z" fill="#3F3D56"/>
<path d="M280.987 125.625L271.713 142.554L264.682 219.572L272.626 222.001L286.688 161.753L303.008 220.292L312.53 220.53L306.046 152.976L300.38 126.821L280.987 125.625Z" fill="#2F2E41"/>
<path d="M220.965 113.076C220.58 112.952 220.161 112.985 219.801 113.169C219.441 113.353 219.168 113.673 219.043 114.058L211.168 138.381C211.044 138.766 211.077 139.185 211.261 139.546C211.445 139.906 211.764 140.179 212.149 140.305L310.084 172.09C310.469 172.215 310.887 172.181 311.247 171.997C311.607 171.813 311.88 171.493 312.005 171.108L319.88 146.786C320.005 146.4 319.971 145.981 319.787 145.621C319.603 145.26 319.284 144.987 318.9 144.862L220.965 113.076Z" fill="white"/>
<path d="M220.965 113.076C220.58 112.952 220.161 112.985 219.801 113.169C219.441 113.353 219.168 113.673 219.043 114.058L211.168 138.381C211.044 138.766 211.077 139.185 211.261 139.546C211.445 139.906 211.764 140.179 212.149 140.305L310.084 172.09C310.469 172.215 310.887 172.181 311.247 171.997C311.607 171.813 311.88 171.493 312.005 171.108L319.88 146.786C320.005 146.4 319.971 145.981 319.787 145.621C319.603 145.26 319.284 144.987 318.9 144.862L220.965 113.076Z" fill="#E6E6E6"/>
<path d="M212.859 138.729L310.431 170.397L318.189 146.437L220.616 114.769L212.859 138.729Z" fill="white"/>
<path d="M229.478 125.265C229.141 125.156 228.775 125.186 228.46 125.347C228.145 125.508 227.907 125.788 227.797 126.125C227.688 126.462 227.717 126.828 227.878 127.144C228.039 127.459 228.318 127.698 228.655 127.808L304.036 152.273C304.203 152.328 304.379 152.349 304.554 152.335C304.729 152.321 304.899 152.273 305.056 152.194C305.212 152.114 305.351 152.004 305.465 151.871C305.579 151.737 305.665 151.583 305.719 151.416C305.774 151.249 305.794 151.072 305.78 150.897C305.767 150.722 305.718 150.552 305.639 150.395C305.559 150.239 305.449 150.1 305.316 149.986C305.182 149.872 305.028 149.786 304.861 149.732L304.86 149.731L229.478 125.265Z" fill="#4E73DF"/>
<path d="M227.009 132.892C226.672 132.783 226.306 132.813 225.992 132.974C225.677 133.135 225.439 133.415 225.33 133.752C225.221 134.088 225.25 134.455 225.41 134.77C225.571 135.085 225.85 135.324 226.186 135.434L301.567 159.9C301.904 160.01 302.27 159.981 302.586 159.821C302.901 159.661 303.14 159.381 303.25 159.044C303.36 158.708 303.332 158.341 303.172 158.025C303.011 157.709 302.732 157.469 302.396 157.359L302.39 157.358L227.009 132.892Z" fill="#4E73DF"/>
<path d="M305.764 153.031C306.107 152.723 306.378 152.343 306.559 151.918C306.74 151.493 306.825 151.033 306.809 150.572C306.794 150.11 306.677 149.658 306.468 149.246C306.258 148.835 305.961 148.474 305.598 148.19L309.218 137.565L303.579 139.032L301.005 148.897C300.569 149.54 300.383 150.321 300.484 151.092C300.584 151.863 300.964 152.57 301.55 153.08C302.137 153.59 302.89 153.866 303.666 153.857C304.443 153.848 305.189 153.554 305.764 153.031V153.031Z" fill="#FFB7B7"/>
<path d="M307.381 146.584L301.91 144.142L303.748 125.607L302.037 106.918L309.342 102.97L310.89 104.925L310.891 104.969L311.712 128.602L311.708 128.62L307.381 146.584Z" fill="#3F3D56"/>
<path d="M420.361 230H134.221C134.076 230.003 133.934 229.958 133.818 229.872C133.701 229.786 133.616 229.664 133.576 229.525C133.551 229.43 133.548 229.331 133.568 229.235C133.587 229.138 133.628 229.048 133.688 228.97C133.748 228.893 133.825 228.83 133.912 228.786C134 228.743 134.097 228.72 134.195 228.72H420.308C420.461 228.715 420.611 228.762 420.734 228.852C420.857 228.943 420.945 229.073 420.985 229.221C421.006 229.314 421.005 229.411 420.983 229.505C420.962 229.598 420.919 229.685 420.859 229.76C420.8 229.835 420.724 229.895 420.637 229.937C420.551 229.978 420.456 230 420.361 230Z" fill="#CCCCCC"/>
<path d="M96.3097 230H0.665036C0.520314 230.003 0.378639 229.958 0.262087 229.872C0.145535 229.786 0.0606514 229.664 0.0206625 229.525C-0.00430307 229.43 -0.00720891 229.331 0.0121659 229.235C0.0315407 229.138 0.0726782 229.048 0.132418 228.97C0.192158 228.893 0.268905 228.83 0.356754 228.786C0.444602 228.743 0.541211 228.72 0.639144 228.72H96.2573C96.41 228.715 96.56 228.762 96.6828 228.852C96.8057 228.943 96.8942 229.073 96.934 229.221C96.9547 229.314 96.9542 229.411 96.9325 229.505C96.9107 229.598 96.8683 229.685 96.8084 229.76C96.7485 229.835 96.6726 229.895 96.5863 229.937C96.5 229.978 96.4055 230 96.3097 230V230Z" fill="#CCCCCC"/>
<path d="M96.9875 93.8894C96.7305 93.8894 96.4771 93.8295 96.2473 93.7145C96.0175 93.5994 95.8176 93.4324 95.6635 93.2266L91.6042 87.8088C91.4731 87.6348 91.3776 87.4366 91.3231 87.2256C91.2687 87.0146 91.2563 86.7949 91.2868 86.5791C91.3173 86.3633 91.3901 86.1556 91.5009 85.968C91.6117 85.7804 91.7584 85.6165 91.9326 85.4858C92.1068 85.355 92.305 85.2599 92.516 85.206C92.7269 85.1521 92.9465 85.1403 93.162 85.1715C93.3775 85.2026 93.5847 85.276 93.7718 85.3874C93.9589 85.4988 94.1223 85.6461 94.2524 85.8208L96.9081 89.365L103.729 79.1237C103.973 78.7581 104.351 78.5043 104.782 78.4182C105.212 78.332 105.659 78.4205 106.024 78.6642C106.39 78.908 106.643 79.287 106.729 79.7178C106.815 80.1487 106.727 80.5962 106.483 80.9618L98.3648 93.1516C98.2179 93.3721 98.0204 93.5541 97.7887 93.6824C97.5571 93.8107 97.2981 93.8815 97.0335 93.8889C97.0182 93.8892 97.0028 93.8894 96.9875 93.8894Z" fill="white"/>
</g>
<defs>
<clipPath id="clip0_110_4">
<rect width="421" height="230" fill="white"/>
</clipPath>
</defs>
</svg>
